<?xml version="1.0" encoding="UTF-8" standalone="no"?>
<!-- Created with Inkscape (http://www.inkscape.org/) -->

<svg
   xmlns:dc="http://purl.org/dc/elements/1.1/"
   xmlns:cc="http://creativecommons.org/ns#"
   xmlns:rdf="http://www.w3.org/1999/02/22-rdf-syntax-ns#"
   xmlns:svg="http://www.w3.org/2000/svg"
   xmlns="http://www.w3.org/2000/svg"
   xmlns:sodipodi="http://sodipodi.sourceforge.net/DTD/sodipodi-0.dtd"
   xmlns:inkscape="http://www.inkscape.org/namespaces/inkscape"
   width="16.906876mm"
   height="17.991667mm"
   viewBox="0 0 16.906876 17.991667"
   version="1.1"
   id="svg59990"
   inkscape:version="0.92.1 r15371"
   sodipodi:docname="Drainage_Module_Icon.svg">
  <defs
     id="defs59984" />
  <sodipodi:namedview
     id="base"
     pagecolor="#ffffff"
     bordercolor="#666666"
     borderopacity="1.0"
     inkscape:pageopacity="0.0"
     inkscape:pageshadow="2"
     inkscape:zoom="1.8452355"
     inkscape:cx="28.352633"
     inkscape:cy="31.288059"
     inkscape:document-units="mm"
     inkscape:current-layer="layer1"
     showgrid="false"
     fit-margin-top="0"
     fit-margin-left="0"
     fit-margin-right="0"
     fit-margin-bottom="0"
     inkscape:window-width="460"
     inkscape:window-height="403"
     inkscape:window-x="150"
     inkscape:window-y="150"
     inkscape:window-maximized="0" />
  <metadata
     id="metadata59987">
    <rdf:RDF>
      <cc:Work
         rdf:about="">
        <dc:format>image/svg+xml</dc:format>
        <dc:type
           rdf:resource="http://purl.org/dc/dcmitype/StillImage" />
        <dc:title></dc:title>
      </cc:Work>
    </rdf:RDF>
  </metadata>
  <g
     inkscape:label="Layer 1"
     inkscape:groupmode="layer"
     id="layer1"
     transform="translate(-89.064466,-156.46845)">
    <g
       id="g720"
       transform="matrix(0.26458333,0,0,0.26458333,-1909.0953,155.41012)">
      <polygon
         id="polygon716"
         points="7610,48.5 7606,55.5 7606,58.7 7597,70 7571.2,70 7567.2,66 7563.5,66 7554,61.2 7554,32.2 7566,19.2 7566,10.8 7575.5,6 7604.8,6 7614,15.2 7614,34.4 7610,44.4 " />
      <path
         id="path718"
         d="m 7604,8 4,4 4,4 v 4 14 l -4,10 v 4 l -4,7 v 3 l -8,10 h -24 l -4,-4 h -4 l -8,-4 V 33 l 12,-13 v -8 l 8,-4 h 28 m 1.7,-4 h -1.7 -28 -0.9 l -0.8,0.4 -8,4 -2.2,1.1 v 2.5 6.4 l -10.9,11.9 -1.1,1.1 v 1.6 27 2.5 l 2.2,1.1 8,4 0.8,0.4 h 0.9 2.3 l 2.8,2.8 1.2,1.2 h 1.7 24 1.9 l 1.2,-1.5 8,-10 0.9,-1.1 V 58 56.1 l 3.5,-6.1 0.5,-0.9 V 48 44.8 l 3.7,-9.3 0.3,-0.7 V 34 20 16 14.3 l -1.2,-1.2 -4,-4 -4,-4 z"
         class="st55"
         inkscape:connector-curvature="0"
         style="fill:#939598" />
    </g>
    <g
       id="g7739"
       transform="matrix(0.26458333,0,0,0.26458333,-1909.0953,155.41012)">
      <polygon
         id="polygon7735"
         points="7606,47.5 7602,54.5 7602,57.3 7595,66 7572.8,66 7568.8,62 7564.5,62 7558,58.8 7558,33.8 7570,20.8 7570,13.2 7576.5,10 7603.2,10 7610,16.8 7610,33.6 7606,43.6 "
         class="st611"
         style="fill:#7bde7b" />
      <path
         id="path7737"
         d="m 7602.3,12 2.8,2.8 2.8,2.8 V 20 33.2 l -3.7,9.3 -0.3,0.7 v 0.8 2.9 l -3.5,6.1 -0.5,0.9 V 55 56.6 L 7594,64 h -20.4 l -2.8,-2.8 -1.2,-1.2 h -1.7 -3.1 l -4.9,-2.5 v -23 l 10.9,-11.9 1.1,-1.1 V 20 14.5 l 4.9,-2.5 h 25.5 m 1.7,-4 h -28 l -8,4 v 8 l -12,13 v 27 l 8,4 h 4 l 4,4 h 24 l 8,-10 v -3 l 4,-7 v -4 l 4,-10 V 20 16 l -4,-4 z"
         inkscape:connector-curvature="0" />
    </g>
    <g
       id="g7749"
       transform="matrix(0.26458333,0,0,0.26458333,-1909.0953,155.41012)">
      <polyline
         id="polyline7741"
         points="7574,56 7574,48 7578,44 7578,36 7574,32   "
         class="st612"
         style="fill:none;stroke:#6fbf7a;stroke-width:8;stroke-linecap:square;stroke-miterlimit:10" />
      <polyline
         id="polyline7743"
         points="7586,16 7586,24 7590,28 7590,32 7578,44   "
         class="st612"
         style="fill:none;stroke:#6fbf7a;stroke-width:8;stroke-linecap:square;stroke-miterlimit:10" />
      <line
         id="line7745"
         y2="32"
         x2="7590"
         y1="22"
         x1="7600"
         class="st612"
         style="fill:none;stroke:#6fbf7a;stroke-width:8;stroke-linecap:square;stroke-miterlimit:10" />
      <polyline
         id="polyline7747"
         points="7596,44 7594,44 7590,48 7577,48   "
         class="st612"
         style="fill:none;stroke:#6fbf7a;stroke-width:8;stroke-linecap:square;stroke-miterlimit:10" />
    </g>
    <g
       id="g7759"
       transform="matrix(0.26458333,0,0,0.26458333,-1909.0953,155.41012)">
      <polyline
         id="polyline7751"
         points="7574,56 7574,48 7578,44 7578,36 7574,32   "
         class="st613"
         style="fill:none;stroke:#005adf;stroke-width:4;stroke-linecap:square;stroke-miterlimit:10" />
      <polyline
         id="polyline7753"
         points="7586,16 7586,24 7590,28 7590,32 7578,44   "
         class="st613"
         style="fill:none;stroke:#005adf;stroke-width:4;stroke-linecap:square;stroke-miterlimit:10" />
      <line
         id="line7755"
         y2="32"
         x2="7590"
         y1="22"
         x1="7600"
         class="st613"
         style="fill:none;stroke:#005adf;stroke-width:4;stroke-linecap:square;stroke-miterlimit:10" />
      <polyline
         id="polyline7757"
         points="7596,44 7594,44 7590,48 7576,48   "
         class="st613"
         style="fill:none;stroke:#005adf;stroke-width:4;stroke-linecap:square;stroke-miterlimit:10" />
    </g>
  </g>
</svg>
