<?xml version="1.0" encoding="UTF-8" standalone="no"?>
<!-- Created with Inkscape (http://www.inkscape.org/) -->

<svg
   xmlns:dc="http://purl.org/dc/elements/1.1/"
   xmlns:cc="http://creativecommons.org/ns#"
   xmlns:rdf="http://www.w3.org/1999/02/22-rdf-syntax-ns#"
   xmlns:svg="http://www.w3.org/2000/svg"
   xmlns="http://www.w3.org/2000/svg"
   xmlns:sodipodi="http://sodipodi.sourceforge.net/DTD/sodipodi-0.dtd"
   xmlns:inkscape="http://www.inkscape.org/namespaces/inkscape"
   width="16.933332mm"
   height="16.933332mm"
   viewBox="0 0 16.933332 16.933332"
   version="1.1"
   id="svg155052"
   inkscape:version="0.92.1 r15371"
   sodipodi:docname="WMS_HelpIcon.svg">
  <defs
     id="defs155046">
    <linearGradient
       y2="-1418.9431"
       x2="1525.0569"
       y1="-1461.0569"
       x1="1482.9431"
       gradientUnits="userSpaceOnUse"
       id="SVGID_95_">
      <stop
         id="stop1760"
         style="stop-color:#87E0FC"
         offset="0" />
      <stop
         id="stop1762"
         style="stop-color:#78D1FB"
         offset="6.525040e-02" />
      <stop
         id="stop1764"
         style="stop-color:#4DA7F8"
         offset="0.2753" />
      <stop
         id="stop1766"
         style="stop-color:#2C86F5"
         offset="0.479" />
      <stop
         id="stop1768"
         style="stop-color:#146EF3"
         offset="0.6723" />
      <stop
         id="stop1770"
         style="stop-color:#0560F2"
         offset="0.8506" />
      <stop
         id="stop1772"
         style="stop-color:#005BF2"
         offset="1" />
    </linearGradient>
  </defs>
  <sodipodi:namedview
     id="base"
     pagecolor="#ffffff"
     bordercolor="#666666"
     borderopacity="1.0"
     inkscape:pageopacity="0.0"
     inkscape:pageshadow="2"
     inkscape:zoom="6.8945259"
     inkscape:cx="46.441823"
     inkscape:cy="12.315611"
     inkscape:document-units="mm"
     inkscape:current-layer="layer1"
     showgrid="false"
     fit-margin-top="0"
     fit-margin-left="0"
     fit-margin-right="0"
     fit-margin-bottom="0"
     inkscape:window-width="1920"
     inkscape:window-height="1018"
     inkscape:window-x="-8"
     inkscape:window-y="-8"
     inkscape:window-maximized="1" />
  <metadata
     id="metadata155049">
    <rdf:RDF>
      <cc:Work
         rdf:about="">
        <dc:format>image/svg+xml</dc:format>
        <dc:type
           rdf:resource="http://purl.org/dc/dcmitype/StillImage" />
        <dc:title></dc:title>
      </cc:Work>
    </rdf:RDF>
  </metadata>
  <g
     inkscape:label="Layer 1"
     inkscape:groupmode="layer"
     id="layer1"
     transform="translate(-129.87262,-110.88453)">
    <g
       id="g1779"
       transform="matrix(0.26458333,0,0,0.26458333,-259.59404,500.35119)">
      <linearGradient
         y2="-1418.9431"
         x2="1525.0569"
         y1="-1461.0569"
         x1="1482.9431"
         gradientUnits="userSpaceOnUse"
         id="linearGradient155035">
        <stop
           id="stop155021"
           style="stop-color:#87E0FC"
           offset="0" />
        <stop
           id="stop155023"
           style="stop-color:#78D1FB"
           offset="6.525040e-02" />
        <stop
           id="stop155025"
           style="stop-color:#4DA7F8"
           offset="0.2753" />
        <stop
           id="stop155027"
           style="stop-color:#2C86F5"
           offset="0.479" />
        <stop
           id="stop155029"
           style="stop-color:#146EF3"
           offset="0.6723" />
        <stop
           id="stop155031"
           style="stop-color:#0560F2"
           offset="0.8506" />
        <stop
           id="stop155033"
           style="stop-color:#005BF2"
           offset="1" />
      </linearGradient>
      <circle
         id="circle1775"
         r="29.799999"
         cy="-1440"
         cx="1504"
         class="st132"
         style="fill:url(#SVGID_95_)" />
      <path
         id="path1777"
         d="m 1504,-1467.6 c 15.2,0 27.6,12.4 27.6,27.6 0,15.2 -12.4,27.6 -27.6,27.6 -15.2,0 -27.6,-12.4 -27.6,-27.6 0,-15.2 12.4,-27.6 27.6,-27.6 m 0,-4.4 c -17.7,0 -32,14.3 -32,32 0,17.7 14.3,32 32,32 17.7,0 32,-14.3 32,-32 0,-17.7 -14.3,-32 -32,-32 z"
         class="st101"
         inkscape:connector-curvature="0"
         style="fill:#e6e7e8" />
    </g>
    <path
       id="path1781"
       d="m 138.23345,122.3939 -0.0265,-0.37041 c 0,-0.68792 0.13229,-1.27 0.39687,-1.7198 0.18521,-0.3175 0.55563,-0.76729 1.13771,-1.32291 0.39687,-0.37042 0.66146,-0.68792 0.76729,-0.89959 0.13229,-0.23812 0.18521,-0.47625 0.18521,-0.76729 0,-0.52916 -0.18521,-0.9525 -0.55563,-1.32291 -0.37041,-0.37042 -0.79375,-0.55563 -1.29645,-0.55563 -0.50271,0 -0.92605,0.15875 -1.27,0.50271 -0.34396,0.34396 -0.55563,0.87312 -0.66146,1.5875 l -1.21708,-0.15875 c 0.10583,-1.00542 0.44979,-1.74625 1.00541,-2.24896 0.55563,-0.50271 1.27,-0.74083 2.11667,-0.74083 0.87312,0 1.5875,0.26458 2.19604,0.79375 0.58208,0.52916 0.87312,1.21708 0.87312,2.03729 0,0.44979 -0.10583,0.87312 -0.29104,1.24354 -0.18521,0.37042 -0.58208,0.84667 -1.13771,1.40229 -0.5027,0.47625 -0.79375,0.84667 -0.92604,1.11125 -0.13229,0.26459 -0.18521,0.74084 -0.21166,1.42875 z m -0.0794,2.56646 v -1.45521 h 1.34937 v 1.45521 z"
       class="st133"
       inkscape:connector-curvature="0"
       style="fill:#005bf2;stroke:#005bf2;stroke-width:0.27461103;stroke-miterlimit:1" />
    <path
       style="fill:#ffffff;stroke:#ffffff;stroke-width:0.27461103;stroke-miterlimit:1"
       inkscape:connector-curvature="0"
       class="st134"
       d="m 137.70429,121.86474 -0.0265,-0.37042 c 0,-0.68792 0.13229,-1.27 0.39687,-1.71979 0.18521,-0.3175 0.55563,-0.76729 1.13771,-1.32292 0.39688,-0.37042 0.66146,-0.68792 0.76729,-0.89958 0.1323,-0.23813 0.18521,-0.47625 0.18521,-0.76729 0,-0.52917 -0.18521,-0.9525 -0.55562,-1.32292 -0.37042,-0.37042 -0.79375,-0.55563 -1.29646,-0.55563 -0.50271,0 -0.92604,0.15875 -1.27,0.50271 -0.34396,0.34396 -0.55562,0.87313 -0.66146,1.5875 l -1.21708,-0.15875 c 0.10583,-1.00541 0.44979,-1.74625 1.00542,-2.24896 0.55562,-0.5027 1.26999,-0.74083 2.11666,-0.74083 0.87313,0 1.5875,0.26458 2.19604,0.79375 0.58209,0.52917 0.87313,1.21708 0.87313,2.03729 0,0.44979 -0.10584,0.87313 -0.29104,1.24354 -0.18521,0.37042 -0.58209,0.84667 -1.13771,1.4023 -0.50271,0.47625 -0.79375,0.84666 -0.92604,1.11125 -0.1323,0.26458 -0.18521,0.74083 -0.21167,1.42875 z m -0.0794,2.54 v -1.45521 h 1.34938 v 1.45521 z"
       id="path1785" />
  </g>
</svg>
