<?xml version="1.0" encoding="utf-8"?>
<!-- Generator: Adobe Illustrator 26.0.2, SVG Export Plug-In . SVG Version: 6.00 Build 0)  -->
<svg version="1.1" id="Layer_1" xmlns="http://www.w3.org/2000/svg" xmlns:xlink="http://www.w3.org/1999/xlink" x="0px" y="0px"
	 viewBox="0 0 64 64" style="enable-background:new 0 0 64 64;" xml:space="preserve">
<style type="text/css">
	.st0{clip-path:url(#SVGID_00000054263436800591119820000011935063900429537449_);fill:#FFBF00;}
</style>
<g>
	<defs>
		<rect id="SVGID_1_" width="64" height="64"/>
	</defs>
	<clipPath id="SVGID_00000056415421582932024490000007337183513565140151_">
		<use xlink:href="#SVGID_1_"  style="overflow:visible;"/>
	</clipPath>
	<path style="clip-path:url(#SVGID_00000056415421582932024490000007337183513565140151_);fill:#FFBF00;" d="M-20.68,57.49
		l25.4-15.12c0,0,9.24-4.8,14.04-8.93s-0.36-11.94,8.59-16.56s12.36-5.97,14.6-4c1.72,1.52-5.78,7-8.3,9.72
		c-0.6,0.65-1.02,1.43-0.83,2.29c0.71,3.2,3.22,10.55,11.09,9.91l9.58-8.25c0,0,8.69,3.68-6.21,17.15
		c-4.73,4.28-15.2,2.34-19.12,1.88C26.26,45.36,6.41,56.8-13.72,68.75l-0.18,0.12l-10.81,6.51c0,0-9.24,4.8-14.04,8.93
		s0.36,11.94-8.59,16.56c-8.95,4.62-12.36,5.97-14.6,4c-1.72-1.52,5.78-7,8.3-9.72c0.6-0.65,1.02-1.43,0.83-2.29
		c-0.71-3.2-3.22-10.55-11.09-9.91l-9.58,8.25c0,0-8.69-3.68,6.21-17.15c4.73-4.28,15.2-2.34,19.12-1.88
		c1.88,0.22,7.18-2.62,27.31-14.57L-20.68,57.49z"/>
</g>
</svg>
