<?xml version="1.0" encoding="utf-8"?>
<!-- Generator: Adobe Illustrator 25.4.1, SVG Export Plug-In . SVG Version: 6.00 Build 0)  -->
<svg version="1.1" id="Layer_1" xmlns="http://www.w3.org/2000/svg" xmlns:xlink="http://www.w3.org/1999/xlink" x="0px" y="0px"
	 viewBox="0 0 64 64" style="enable-background:new 0 0 64 64;" xml:space="preserve">
<style type="text/css">
	.st0{clip-path:url(#SVGID_00000160189947358265011660000002146541374513138066_);}
</style>
<g>
	<defs>
		<rect id="SVGID_1_" x="0" width="64" height="64"/>
	</defs>
	<clipPath id="SVGID_00000047051497984955158390000011250328933643676329_">
		<use xlink:href="#SVGID_1_"  style="overflow:visible;"/>
	</clipPath>
	<path style="clip-path:url(#SVGID_00000047051497984955158390000011250328933643676329_);" d="M-20.7,57.5L4.7,42.4
		c0,0,9.2-4.8,14-8.9s-0.4-11.9,8.6-16.6s12.4-6,14.6-4c1.7,1.5-5.8,7-8.3,9.7c-0.6,0.6-1,1.4-0.8,2.3c0.7,3.2,3.2,10.6,11.1,9.9
		l9.6-8.3c0,0,8.7,3.7-6.2,17.1C42.5,48,32.1,46,28.1,45.6c-1.9-0.2-21.7,11.2-41.9,23.2l-0.2,0.1l-10.8,6.5c0,0-9.2,4.8-14,8.9
		s0.4,11.9-8.6,16.6c-8.9,4.6-12.4,6-14.6,4c-1.7-1.5,5.8-7,8.3-9.7c0.6-0.6,1-1.4,0.8-2.3c-0.7-3.2-3.2-10.6-11.1-9.9l-9.6,8.3
		c0,0-8.7-3.7,6.2-17.1c4.7-4.3,15.2-2.3,19.1-1.9c1.9,0.2,7.2-2.6,27.3-14.6L-20.7,57.5z"/>
</g>
</svg>
