{
  "accessors": [
    {
      "bufferView": 0,
      "byteOffset": 0,
      "componentType": 5125,
      "normalized": false,
      "count": 165744,
      "type": "SCALAR",
      "max": [
        27648
      ],
      "min": [
        0
      ]
    },
    {
      "bufferView": 1,
      "byteOffset": 0,
      "componentType": 5126,
      "normalized": false,
      "count": 27649,
      "type": "VEC3",
      "max": [
        340.49658203125,
        3724.6875,
        3331.75
      ],
      "min": [
        -440.83740234375,
        -4032.03125,
        -3528.0
      ]
    },
    {
      "bufferView": 2,
      "byteOffset": 0,
      "componentType": 5126,
      "normalized": false,
      "count": 27649,
      "type": "VEC3"
    },
    {
      "bufferView": 3,
      "byteOffset": 0,
      "componentType": 5126,
      "normalized": false,
      "count": 27649,
      "type": "VEC2"
    }
  ],
  "asset": {
    "generator": "pygltflib@v1.16.1",
    "version": "2.0"
  },
  "bufferViews": [
    {
      "buffer": 0,
      "byteOffset": 0,
      "byteLength": 662976,
      "target": 34963
    },
    {
      "buffer": 0,
      "byteOffset": 662976,
      "byteLength": 331788,
      "target": 34962
    },
    {
      "buffer": 0,
      "byteOffset": 994764,
      "byteLength": 331788,
      "target": 34962
    },
    {
      "buffer": 0,
      "byteOffset": 1326552,
      "byteLength": 221192,
      "target": 34962
    }
  ],
  "buffers": [
    {
      "uri": "data:application/octet-stream;base64,",
      "byteLength": 1547744
    }
  ],
  "images": [
    {
      "uri": "data:image/png;base64,"
    }
  ],
  "cameras": [
    {
      "perspective": {
        "aspectRatio": 1.7229219143576826,
        "yfov": 0.5235987755982988,
        "zfar": 8499.015535529856,
        "znear": 3080.9334872732406
      },
      "type": "perspective"
    }
  ],
  "materials": [
    {
      "pbrMetallicRoughness": {
        "baseColorFactor": [
          1.0,
          1.0,
          1.0,
          1.0
        ],
        "metallicFactor": 0.0,
        "roughnessFactor": 1.0,
        "baseColorTexture": {
          "index": 0,
          "texCoord": 0
        }
      },
      "emissiveFactor": [
        0.0,
        0.0,
        0.0
      ],
      "alphaMode": "MASK",
      "alphaCutoff": 0.5,
      "doubleSided": true,
      "name": "tRIBS Base Material"
    }
  ],
  "meshes": [
    {
      "primitives": [
        {
          "attributes": {
            "POSITION": 1,
            "NORMAL": 2,
            "TEXCOORD_0": 3
          },
          "indices": 0,
          "mode": 4,
          "material": 0
        }
      ]
    }
  ],
  "nodes": [
    {
      "mesh": 0,
      "name": "mesh0"
    },
    {
      "camera": 0,
      "matrix": [
        0.8874253638642298,
        0.012368547426699602,
        -0.46078546266673054,
        0,
        0.4377691309503974,
        0.29041060468331764,
        0.850893570709289,
        0,
        0.14434130232671916,
        -0.9568221881426159,
        0.2523031682730191,
        0,
        -1505019.9118268227,
        -5061342.405250623,
        3577506.044414144,
        1
      ],
      "name": "Camera Node"
    },
    {
      "children": [
        0,
        1
      ],
      "name": "Renderer Node"
    }
  ],
  "samplers": [
    {
      "wrapS": 33071,
      "wrapT": 33071
    }
  ],
  "scene": 0,
  "scenes": [
    {
      "nodes": [
        2
      ]
    }
  ],
  "textures": [
    {
      "sampler": 0,
      "source": 0
    }
  ]
}